<svg width="24" height="24" viewBox="0 0 24 24" fill="none" xmlns="http://www.w3.org/2000/svg">
<path d="M12.0002 8.99996V13M12.0002 17H12.0103M10.2903 3.85995L1.82027 17.9999C1.64564 18.3023 1.55324 18.6453 1.55225 18.9945C1.55128 19.3437 1.64176 19.6871 1.81469 19.9905C1.98763 20.2938 2.237 20.5467 2.53798 20.7238C2.83895 20.9009 3.18107 20.9961 3.53027 20.9999H20.4703C20.8195 20.9961 21.1616 20.9009 21.4626 20.7238C21.7635 20.5467 22.0129 20.2938 22.1858 19.9905C22.3587 19.6871 22.4492 19.3437 22.4483 18.9945C22.4473 18.6453 22.3549 18.3023 22.1803 17.9999L13.7102 3.85995C13.532 3.56606 13.281 3.32307 12.9815 3.15444C12.6819 2.9858 12.344 2.89722 12.0002 2.89722C11.6565 2.89722 11.3186 2.9858 11.0191 3.15444C10.7195 3.32307 10.4685 3.56606 10.2903 3.85995Z" stroke="#0A212F" stroke-width="2" stroke-linecap="round" stroke-linejoin="round"/>
</svg>
