<svg width="24" height="24" viewBox="0 0 24 24" fill="none" xmlns="http://www.w3.org/2000/svg">
<g clip-path="url(#clip0_1034_1154)">
<path fill-rule="evenodd" clip-rule="evenodd" d="M12 24.0481C18.6274 24.0481 24 18.6755 24 12.0481C24 5.42068 18.6274 0.0480957 12 0.0480957C5.37258 0.0480957 0 5.42068 0 12.0481C0 18.6755 5.37258 24.0481 12 24.0481ZM11.9999 22.0481C17.567 22.0481 22.0799 17.5709 22.0799 12.0481C22.0799 6.52525 17.567 2.0481 11.9999 2.0481C6.43289 2.0481 1.91992 6.52525 1.91992 12.0481C1.91992 17.5709 6.43289 22.0481 11.9999 22.0481Z" fill="#0A212F"/>
<path d="M11.9996 12.0481C13.8553 12.0481 15.3596 10.4811 15.3596 8.5481C15.3596 6.6151 13.8553 5.0481 11.9996 5.0481C10.1439 5.0481 8.6396 6.6151 8.6396 8.5481C8.6396 10.4811 10.1439 12.0481 11.9996 12.0481Z" fill="#0A212F"/>
<path d="M19.1998 19.9304C19.1998 21.9772 14.5862 22.0481 12.211 22.0481C9.8357 22.0481 5.75977 21.9772 5.75977 19.9304C5.75977 17.8837 9.8357 13.0481 12.211 13.0481C14.5862 13.0481 19.1998 17.8837 19.1998 19.9304Z" fill="#0A212F"/>
</g>
<defs>
<clipPath id="clip0_1034_1154">
<rect width="24" height="24" fill="white"/>
</clipPath>
</defs>
</svg>
