<svg width="24" height="24" viewBox="0 0 24 24" fill="none" xmlns="http://www.w3.org/2000/svg">
<path d="M12 10.1103L3.60538 18.4144C3.21076 18.8048 2.70852 19 2.09865 19C1.48879 19 0.986547 18.8048 0.591928 18.4144C0.197309 18.0241 0 17.5272 0 16.924C0 16.3207 0.197309 15.8238 0.591928 15.4335L10.4933 5.63878C10.9238 5.21293 11.426 5 12 5C12.574 5 13.0762 5.21293 13.5067 5.63878L23.4081 15.4335C23.8027 15.8238 24 16.3207 24 16.924C24 17.5272 23.8027 18.0241 23.4081 18.4144C23.0135 18.8048 22.5112 19 21.9013 19C21.2915 19 20.7892 18.8048 20.3946 18.4144L12 10.1103Z" fill="#0A212F"/>
</svg>
