<svg width="24" height="24" viewBox="0 0 24 24" fill="none" xmlns="http://www.w3.org/2000/svg">
<path d="M12 19C11.713 19 11.4439 18.9555 11.1928 18.8664C10.9417 18.7774 10.7085 18.626 10.4933 18.4122L0.591928 8.58015C0.197309 8.1883 0 7.68957 0 7.08397C0 6.47837 0.197309 5.97964 0.591928 5.58779C0.986547 5.19593 1.48879 5 2.09865 5C2.70852 5 3.21076 5.19593 3.60538 5.58779L12 13.9237L20.3946 5.58779C20.7892 5.19593 21.2915 5 21.9013 5C22.5112 5 23.0135 5.19593 23.4081 5.58779C23.8027 5.97964 24 6.47837 24 7.08397C24 7.68957 23.8027 8.1883 23.4081 8.58015L13.5067 18.4122C13.2915 18.626 13.0583 18.7774 12.8072 18.8664C12.5561 18.9555 12.287 19 12 19Z" fill="#0A212F"/>
</svg>
