<svg width="24" height="24" viewBox="0 0 24 24" fill="none" xmlns="http://www.w3.org/2000/svg">
<path d="M4.5 23.5C4.14584 23.5 3.84896 23.384 3.60937 23.152C3.36979 22.9199 3.25 22.6324 3.25 22.2895V19.8079C2.875 19.4044 2.57291 18.9554 2.34375 18.4612C2.11459 17.9669 2 17.4272 2 16.8421V5.34211C2 3.66755 2.80209 2.44189 4.40625 1.66513C6.01041 0.888373 8.54166 0.5 12 0.5C15.5834 0.5 18.1459 0.873242 19.6875 1.61974C21.2291 2.36623 22 3.60702 22 5.34211V16.8421C22 17.4272 21.8854 17.9669 21.6563 18.4612C21.4271 18.9554 21.125 19.4044 20.75 19.8079V22.2895C20.75 22.6324 20.6302 22.9199 20.3906 23.152C20.151 23.384 19.8541 23.5 19.5 23.5H18.25C17.8959 23.5 17.599 23.384 17.3594 23.152C17.1198 22.9199 17 22.6324 17 22.2895V21.0789H7V22.2895C7 22.6324 6.88021 22.9199 6.64063 23.152C6.40104 23.384 6.10416 23.5 5.75 23.5H4.5ZM4.5 10.1842H19.5V6.55263H4.5V10.1842ZM7.625 17.4474C8.14584 17.4474 8.58854 17.2709 8.95312 16.9178C9.31771 16.5647 9.5 16.136 9.5 15.6316C9.5 15.1272 9.31771 14.6985 8.95312 14.3454C8.58854 13.9923 8.14584 13.8158 7.625 13.8158C7.10416 13.8158 6.66146 13.9923 6.29688 14.3454C5.93229 14.6985 5.75 15.1272 5.75 15.6316C5.75 16.136 5.93229 16.5647 6.29688 16.9178C6.66146 17.2709 7.10416 17.4474 7.625 17.4474ZM16.375 17.4474C16.8959 17.4474 17.3385 17.2709 17.7031 16.9178C18.0678 16.5647 18.25 16.136 18.25 15.6316C18.25 15.1272 18.0678 14.6985 17.7031 14.3454C17.3385 13.9923 16.8959 13.8158 16.375 13.8158C15.8541 13.8158 15.4115 13.9923 15.0469 14.3454C14.6822 14.6985 14.5 15.1272 14.5 15.6316C14.5 16.136 14.6822 16.5647 15.0469 16.9178C15.4115 17.2709 15.8541 17.4474 16.375 17.4474ZM5.0625 4.13158H19.0625C18.75 3.7886 18.0781 3.5011 17.0469 3.26908C16.0156 3.03706 14.3541 2.92105 12.0625 2.92105C9.83338 2.92105 8.20312 3.04715 7.17187 3.29934C6.14062 3.55153 5.4375 3.82895 5.0625 4.13158ZM7 18.6579H17C17.6875 18.6579 18.276 18.4209 18.7656 17.9467C19.2553 17.4725 19.5 16.9026 19.5 16.2368V12.6053H4.5V16.2368C4.5 16.9026 4.74479 17.4725 5.23438 17.9467C5.72396 18.4209 6.3125 18.6579 7 18.6579Z" fill="#0A212F"/>
</svg>
