<svg width="24" height="24" viewBox="0 0 24 24" fill="none" xmlns="http://www.w3.org/2000/svg">
<path d="M2.22222 24C1.87593 24 1.58565 23.885 1.35139 23.655C1.11713 23.425 1 23.14 1 22.8V16.8C1 16.14 1.23935 15.575 1.71806 15.105C2.19676 14.635 2.77222 14.4 3.44444 14.4V9.6C3.44444 8.94 3.6838 8.375 4.1625 7.905C4.6412 7.435 5.21667 7.2 5.88889 7.2H10.7778V5.46C10.4111 5.22 10.1157 4.93 9.89167 4.59C9.66759 4.25 9.55556 3.84 9.55556 3.36C9.55556 3.06 9.61667 2.765 9.73889 2.475C9.86111 2.185 10.0444 1.92 10.2889 1.68L12 0L13.7111 1.68C13.9556 1.92 14.1389 2.185 14.2611 2.475C14.3833 2.765 14.4444 3.06 14.4444 3.36C14.4444 3.84 14.3324 4.25 14.1083 4.59C13.8843 4.93 13.5889 5.22 13.2222 5.46V7.2H18.1111C18.7833 7.2 19.3588 7.435 19.8375 7.905C20.3162 8.375 20.5556 8.94 20.5556 9.6V14.4C21.2278 14.4 21.8032 14.635 22.2819 15.105C22.7606 15.575 23 16.14 23 16.8V22.8C23 23.14 22.8829 23.425 22.6486 23.655C22.4144 23.885 22.1241 24 21.7778 24H2.22222ZM5.88889 14.4H18.1111V9.6H5.88889V14.4ZM3.44444 21.6H20.5556V16.8H3.44444V21.6Z" fill="#0A212F"/>
</svg>
