<svg width="24" height="24" viewBox="0 0 24 24" fill="none" xmlns="http://www.w3.org/2000/svg">
<path d="M5.125 24C4.36875 24 3.72135 23.7389 3.18281 23.2167C2.64427 22.6944 2.375 22.0667 2.375 21.3333V4C1.98542 4 1.65885 3.87222 1.39531 3.61667C1.13177 3.36111 1 3.04444 1 2.66667C1 2.28889 1.13177 1.97222 1.39531 1.71667C1.65885 1.46111 1.98542 1.33333 2.375 1.33333H7.875C7.875 0.955556 8.00677 0.638889 8.27031 0.383333C8.53385 0.127778 8.86042 0 9.25 0H14.75C15.1396 0 15.4661 0.127778 15.7297 0.383333C15.9932 0.638889 16.125 0.955556 16.125 1.33333H21.625C22.0146 1.33333 22.3411 1.46111 22.6047 1.71667C22.8682 1.97222 23 2.28889 23 2.66667C23 3.04444 22.8682 3.36111 22.6047 3.61667C22.3411 3.87222 22.0146 4 21.625 4V21.3333C21.625 22.0667 21.3557 22.6944 20.8172 23.2167C20.2786 23.7389 19.6313 24 18.875 24H5.125ZM18.875 4H5.125V21.3333H18.875V4ZM12 14.5333L14.6125 17.0667C14.8646 17.3111 15.1854 17.4333 15.575 17.4333C15.9646 17.4333 16.2854 17.3111 16.5375 17.0667C16.7896 16.8222 16.9156 16.5111 16.9156 16.1333C16.9156 15.7556 16.7896 15.4444 16.5375 15.2L13.925 12.6667L16.5375 10.1333C16.7896 9.88889 16.9156 9.57778 16.9156 9.2C16.9156 8.82222 16.7896 8.51111 16.5375 8.26667C16.2854 8.02222 15.9646 7.9 15.575 7.9C15.1854 7.9 14.8646 8.02222 14.6125 8.26667L12 10.8L9.3875 8.26667C9.13542 8.02222 8.81458 7.9 8.425 7.9C8.03542 7.9 7.71458 8.02222 7.4625 8.26667C7.21042 8.51111 7.08438 8.82222 7.08438 9.2C7.08438 9.57778 7.21042 9.88889 7.4625 10.1333L10.075 12.6667L7.4625 15.2C7.21042 15.4444 7.08438 15.7556 7.08438 16.1333C7.08438 16.5111 7.21042 16.8222 7.4625 17.0667C7.71458 17.3111 8.03542 17.4333 8.425 17.4333C8.81458 17.4333 9.13542 17.3111 9.3875 17.0667L12 14.5333Z" fill="#0A212F"/>
</svg>
