<svg width="24" height="24" viewBox="0 0 24 24" fill="none" xmlns="http://www.w3.org/2000/svg">
<path d="M14.25 1H5.25C4.65327 1 4.08096 1.23178 3.659 1.64436C3.23705 2.05694 3 2.61653 3 3.19999V20.8C3 21.3835 3.23705 21.9431 3.659 22.3557C4.08096 22.7682 4.65327 23 5.25 23H18.7501C19.3468 23 19.9191 22.7682 20.3411 22.3557C20.7629 21.9431 21 21.3835 21 20.8V7.60001M14.25 1L21 7.60001M14.25 1V7.60001H21M16.5 13.1H7.50001M16.5 17.5H7.50001M9.75002 8.7H7.50001" stroke="#0A212F" stroke-width="2" stroke-linecap="round" stroke-linejoin="round"/>
</svg>
