<svg width="24" height="24" viewBox="0 0 24 24" fill="none" xmlns="http://www.w3.org/2000/svg">
<g clip-path="url(#clip0_1090_1178)">
<path d="M18 6C18 9.31371 15.3137 12 12 12C8.68629 12 6 9.31371 6 6C6 2.68629 8.68629 0 12 0C15.3137 0 18 2.68629 18 6ZM8.4 6C8.4 7.98823 10.0118 9.6 12 9.6C13.9882 9.6 15.6 7.98823 15.6 6C15.6 4.01177 13.9882 2.4 12 2.4C10.0118 2.4 8.4 4.01177 8.4 6Z" fill="#0A212F"/>
<path fill-rule="evenodd" clip-rule="evenodd" d="M9.1172 21.0195C8.41018 21.4909 8 22.1379 8 23C8 23.5523 7.55228 24 7 24C6.44772 24 6 23.5523 6 23C6 21.3621 6.83982 20.1341 8.0078 19.3554C9.14614 18.5966 10.6017 18.25 12 18.25C13.3983 18.25 14.8539 18.5966 15.9922 19.3555C17.1602 20.1341 18 21.3621 18 23C18 23.5523 17.5523 24 17 24C16.4477 24 16 23.5523 16 23C16 22.1379 15.5898 21.4909 14.8828 21.0196C14.1461 20.5284 13.1017 20.25 12 20.25C10.8983 20.25 9.85386 20.5284 9.1172 21.0195Z" fill="#0A212F"/>
<path fill-rule="evenodd" clip-rule="evenodd" d="M11.812 15.2462C8.07086 15.1682 4.57411 16.9955 3.45929 20.7824C3.44547 20.8294 3.43653 20.8676 3.43079 20.8978C3.43256 20.8984 3.43436 20.8991 3.4362 20.8997C3.54782 20.9395 3.74298 20.9831 4.059 21.0018C4.61032 21.0343 5.03084 21.5077 4.99826 22.059C4.96567 22.6103 4.49232 23.0309 3.941 22.9983C3.12548 22.9501 2.32253 22.7544 1.82809 22.1556C1.2903 21.5043 1.39009 20.7292 1.5407 20.2176C2.98007 15.3282 7.48332 13.1555 11.8537 13.2466C16.2041 13.3373 20.7563 15.6688 22.4363 20.1489C22.6933 20.8342 22.6409 21.6151 22.0628 22.211C21.5629 22.7263 20.8212 22.936 20.0817 22.9967C19.5313 23.0418 19.0485 22.6322 19.0033 22.0817C18.9582 21.5313 19.3678 21.0485 19.9183 21.0034C20.1731 20.9825 20.3541 20.9403 20.4744 20.8963C20.5132 20.8821 20.5432 20.8686 20.5658 20.857C20.5651 20.8551 20.5644 20.8532 20.5637 20.8511C19.2437 17.3313 15.573 15.3246 11.812 15.2462Z" fill="#0A212F"/>
</g>
<defs>
<clipPath id="clip0_1090_1178">
<rect width="24" height="24" fill="white"/>
</clipPath>
</defs>
</svg>
