<svg width="24" height="24" viewBox="0 0 24 24" fill="none" xmlns="http://www.w3.org/2000/svg">
<path d="M2.4 22C1.74 22 1.175 21.7552 0.705 21.2656C0.235 20.776 0 20.1875 0 19.5V4.5C0 3.8125 0.235 3.22396 0.705 2.73438C1.175 2.24479 1.74 2 2.4 2H21.6C22.26 2 22.825 2.24479 23.295 2.73438C23.765 3.22396 24 3.8125 24 4.5V19.5C24 20.1875 23.765 20.776 23.295 21.2656C22.825 21.7552 22.26 22 21.6 22H2.4ZM21.6 7L12.63 12.8438C12.53 12.9062 12.425 12.9531 12.315 12.9844C12.205 13.0156 12.1 13.0312 12 13.0312C11.9 13.0312 11.795 13.0156 11.685 12.9844C11.575 12.9531 11.47 12.9062 11.37 12.8438L2.4 7V19.5H21.6V7ZM12 10.75L21.6 4.5H2.4L12 10.75ZM2.4 7.3125V5.46875V5.5V5.48438V7.3125Z" fill="#0A212F"/>
</svg>
