<svg width="24" height="24" viewBox="0 0 24 24" fill="none" xmlns="http://www.w3.org/2000/svg">
<path d="M3.75 21.2571H7.875V14.4C7.875 14.0114 8.00677 13.6857 8.27031 13.4229C8.53385 13.16 8.86042 13.0286 9.25 13.0286H14.75C15.1396 13.0286 15.4661 13.16 15.7297 13.4229C15.9932 13.6857 16.125 14.0114 16.125 14.4V21.2571H20.25V8.91429L12 2.74286L3.75 8.91429V21.2571ZM1 21.2571V8.91429C1 8.48 1.0974 8.06857 1.29219 7.68C1.48698 7.29143 1.75625 6.97143 2.1 6.72L10.35 0.548571C10.8313 0.182857 11.3813 0 12 0C12.6188 0 13.1688 0.182857 13.65 0.548571L21.9 6.72C22.2438 6.97143 22.513 7.29143 22.7078 7.68C22.9026 8.06857 23 8.48 23 8.91429V21.2571C23 22.0114 22.7307 22.6571 22.1922 23.1943C21.6536 23.7314 21.0063 24 20.25 24H14.75C14.3604 24 14.0339 23.8686 13.7703 23.6057C13.5068 23.3429 13.375 23.0171 13.375 22.6286V15.7714H10.625V22.6286C10.625 23.0171 10.4932 23.3429 10.2297 23.6057C9.96615 23.8686 9.63958 24 9.25 24H3.75C2.99375 24 2.34635 23.7314 1.80781 23.1943C1.26927 22.6571 1 22.0114 1 21.2571Z" fill="#0A212F"/>
</svg>
