<svg width="24" height="24" viewBox="0 0 24 24" fill="none" xmlns="http://www.w3.org/2000/svg">
<path d="M1 17C1 16.4477 1.49249 16 2.1 16H21.9C22.5076 16 23 16.4477 23 17C23 17.5523 22.5076 18 21.9 18H2.1C1.49249 18 1 17.5523 1 17Z" fill="#0A212F"/>
<path d="M2.88619 11.7505C2.70166 12.0221 2.32264 12.0808 2.06313 11.8779C1.82628 11.6927 1.7771 11.3564 1.95116 11.1123L3.10876 9.48886L1.43152 9.00433C1.1084 8.91099 0.926311 8.57248 1.0284 8.25486C1.12998 7.93887 1.47342 7.76673 1.79075 7.87266L3.4314 8.42067V6.5631C3.4314 6.25211 3.686 6 4.00005 6C4.31412 6 4.56871 6.25211 4.56871 6.5631V8.42067L6.20963 7.87258C6.52682 7.76665 6.87007 7.93879 6.9716 8.25462C7.07375 8.57225 6.89139 8.91083 6.56815 9.00386L4.88329 9.48886L6.03815 11.0929C6.21791 11.3426 6.16771 11.6881 5.92417 11.8774C5.66156 12.0816 5.27948 12.0244 5.08956 11.7525L3.97182 10.1521L2.88619 11.7505Z" fill="#0A212F"/>
<path d="M10.8862 11.7505C10.7016 12.0221 10.3226 12.0808 10.0631 11.8779C9.8263 11.6927 9.77711 11.3564 9.95119 11.1123L11.1088 9.48886L9.43149 9.00433C9.10844 8.91099 8.92631 8.57248 9.02839 8.25486C9.12999 7.93887 9.47341 7.76673 9.79077 7.87266L11.4314 8.42067V6.5631C11.4314 6.25211 11.686 6 12.0001 6C12.3141 6 12.5687 6.25211 12.5687 6.5631V8.42067L14.2096 7.87258C14.5268 7.76665 14.8701 7.93879 14.9716 8.25462C15.0738 8.57225 14.8914 8.91083 14.5682 9.00386L12.8833 9.48886L14.0381 11.0929C14.2179 11.3426 14.1677 11.6881 13.9241 11.8774C13.6616 12.0816 13.2795 12.0244 13.0895 11.7525L11.9718 10.1521L10.8862 11.7505Z" fill="#0A212F"/>
<path d="M18.8862 11.7505C18.7017 12.0221 18.3226 12.0808 18.0631 11.8779C17.8262 11.6927 17.777 11.3564 17.9511 11.1123L19.1087 9.48886L17.4315 9.00433C17.1084 8.91099 16.9263 8.57248 17.0284 8.25486C17.1299 7.93887 17.4734 7.76673 17.7907 7.87266L19.4314 8.42067V6.5631C19.4314 6.25211 19.686 6 20 6C20.3141 6 20.5687 6.25211 20.5687 6.5631V8.42067L22.2096 7.87258C22.5268 7.76665 22.8701 7.93879 22.9716 8.25462C23.0737 8.57225 22.8914 8.91083 22.5681 9.00386L20.8833 9.48886L22.0382 11.0929C22.2179 11.3426 22.1677 11.6881 21.9242 11.8774C21.6615 12.0816 21.2795 12.0244 21.0895 11.7525L19.9718 10.1521L18.8862 11.7505Z" fill="#0A212F"/>
</svg>
