<svg width="24" height="24" viewBox="0 0 24 24" fill="none" xmlns="http://www.w3.org/2000/svg">
<g clip-path="url(#clip0_1034_1188)">
<path d="M14.4296 6.25542C14.2272 6.46198 14.1138 6.73968 14.1138 7.02892C14.1138 7.31814 14.2272 7.59584 14.4296 7.8024L16.1977 9.57036C16.4041 9.77282 16.6819 9.88623 16.9711 9.88623C17.2603 9.88623 17.538 9.77282 17.7446 9.57036L21.9104 5.4046C22.4659 6.63244 22.6342 8.00045 22.3926 9.32633C22.151 10.6522 21.5111 11.873 20.5581 12.826C19.6052 13.7789 18.3845 14.4189 17.0585 14.6605C15.7327 14.9019 14.3647 14.7338 13.1368 14.1781L5.50147 21.8135C5.06188 22.2531 4.46568 22.5 3.84401 22.5C3.22234 22.5 2.62613 22.2531 2.18655 21.8135C1.74696 21.374 1.5 20.7777 1.5 20.1561C1.5 19.5343 1.74696 18.9382 2.18655 18.4986L9.82192 10.8632C9.26629 9.63534 9.09807 8.26734 9.33965 6.94146C9.58123 5.61559 10.2211 4.39482 11.1741 3.44184C12.1271 2.48888 13.3478 1.84896 14.6737 1.60739C15.9996 1.36581 17.3676 1.53405 18.5954 2.08967L14.4296 6.25542Z" stroke="#0A212F" stroke-width="2" stroke-linecap="round" stroke-linejoin="round"/>
</g>
<defs>
<clipPath id="clip0_1034_1188">
<rect width="24" height="24" fill="white"/>
</clipPath>
</defs>
</svg>
