<svg width="24" height="24" viewBox="0 0 24 24" fill="none" xmlns="http://www.w3.org/2000/svg">
<g clip-path="url(#clip0_1057_1143)">
<path d="M24 5.33333V21.3333C24 22.0667 23.7389 22.6944 23.2167 23.2167C22.6944 23.7389 22.0667 24 21.3333 24H2.66667C1.93333 24 1.30556 23.7389 0.783333 23.2167C0.261111 22.6944 0 22.0667 0 21.3333V2.66667C0 1.93333 0.261111 1.30556 0.783333 0.783333C1.30556 0.261111 1.93333 0 2.66667 0H18.6667L24 5.33333ZM21.3333 6.46667L17.5333 2.66667H2.66667V21.3333H21.3333V6.46667ZM12 20C13.1111 20 14.0556 19.6111 14.8333 18.8333C15.6111 18.0556 16 17.1111 16 16C16 14.8889 15.6111 13.9444 14.8333 13.1667C14.0556 12.3889 13.1111 12 12 12C10.8889 12 9.94444 12.3889 9.16667 13.1667C8.38889 13.9444 8 14.8889 8 16C8 17.1111 8.38889 18.0556 9.16667 18.8333C9.94444 19.6111 10.8889 20 12 20ZM4 9.33333H16V4H4V9.33333ZM2.66667 6.46667V21.3333V2.66667V6.46667Z" fill="#0A212F"/>
</g>
<defs>
<clipPath id="clip0_1057_1143">
<rect width="24" height="24" fill="white"/>
</clipPath>
</defs>
</svg>
