<svg width="24" height="24" viewBox="0 0 24 24" fill="none" xmlns="http://www.w3.org/2000/svg">
<path d="M21 10C21 17 12 23 12 23C12 23 3 17 3 10C3 7.61305 3.94822 5.32386 5.63604 3.63604C7.32386 1.94821 9.61306 1 12 1C14.3869 1 16.6762 1.94821 18.364 3.63604C20.0518 5.32386 21 7.61305 21 10Z" stroke="#0A212F" stroke-width="2" stroke-linecap="round" stroke-linejoin="round"/>
<path d="M12 13.0001C13.6568 13.0001 15 11.6569 15 10C15 8.34315 13.6568 7 12 7C10.3431 7 9 8.34315 9 10C9 11.6569 10.3431 13.0001 12 13.0001Z" stroke="#0A212F" stroke-width="2" stroke-linecap="round" stroke-linejoin="round"/>
</svg>
