<svg width="24" height="24" viewBox="0 0 24 24" fill="none" xmlns="http://www.w3.org/2000/svg">
<path d="M20.6398 23.9999C21.17 23.9999 21.6048 23.569 21.5519 23.0414C21.3318 20.8474 20.361 18.7846 18.788 17.2117C16.9877 15.4113 14.5458 14.3999 11.9998 14.3999C9.45372 14.3999 7.01192 15.4113 5.21158 17.2117C3.63856 18.7846 2.66781 20.8474 2.44773 23.0414C2.39482 23.569 2.82961 23.9998 3.3598 23.9998C3.88999 23.9998 4.3136 23.5684 4.3797 23.0423C4.59124 21.3586 5.35651 19.782 6.56922 18.5693C8.00952 17.129 9.96297 16.3199 11.9998 16.3199C14.0367 16.3199 15.9901 17.129 17.4303 18.5693C18.6431 19.782 19.4083 21.3586 19.6199 23.0423C19.686 23.5684 20.1096 23.9999 20.6398 23.9999Z" fill="#0A212F"/>
<path d="M19.1998 8.39997C19.1998 12.3764 15.9762 15.6 11.9998 15.6C8.02338 15.6 4.7998 12.3764 4.7998 8.39997C4.7998 4.4235 8.02338 1.19995 11.9998 1.19995C15.9762 1.19995 19.1998 4.4235 19.1998 8.39997ZM6.5998 8.39997C6.5998 11.3823 9.01751 13.8 11.9998 13.8C14.9822 13.8 17.3998 11.3823 17.3998 8.39997C17.3998 5.41761 14.9822 2.99995 11.9998 2.99995C9.01751 2.99995 6.5998 5.41761 6.5998 8.39997Z" fill="#0A212F"/>
</svg>
